<mxfile host="app.diagrams.net" agent="Mozilla/5.0 (X11; Linux x86_64) AppleWebKit/537.36 (KHTML, like Gecko) Chrome/129.0.0.0 Safari/537.36" version="24.8.2">
  <diagram id="C5RBs43oDa-KdzZeNtuy" name="Page-1">
    <mxGraphModel dx="2261" dy="759" grid="1" gridSize="10" guides="1" tooltips="1" connect="1" arrows="1" fold="1" page="1" pageScale="1" pageWidth="827" pageHeight="1169" math="0" shadow="0">
      <root>
        <mxCell id="WIyWlLk6GJQsqaUBKTNV-0" />
        <mxCell id="WIyWlLk6GJQsqaUBKTNV-1" parent="WIyWlLk6GJQsqaUBKTNV-0" />
        <mxCell id="QHB-Y2uV8XMT2nwZTS_r-0" value="" style="shape=table;startSize=0;container=1;collapsible=0;childLayout=tableLayout;" parent="WIyWlLk6GJQsqaUBKTNV-1" vertex="1">
          <mxGeometry x="-710" y="50" width="1270" height="679" as="geometry" />
        </mxCell>
        <mxCell id="QHB-Y2uV8XMT2nwZTS_r-1" value="" style="shape=tableRow;horizontal=0;startSize=0;swimlaneHead=0;swimlaneBody=0;strokeColor=inherit;top=0;left=0;bottom=0;right=0;collapsible=0;dropTarget=0;fillColor=none;points=[[0,0.5],[1,0.5]];portConstraint=eastwest;" parent="QHB-Y2uV8XMT2nwZTS_r-0" vertex="1">
          <mxGeometry width="1270" height="95" as="geometry" />
        </mxCell>
        <mxCell id="QHB-Y2uV8XMT2nwZTS_r-2" value="Component" style="shape=partialRectangle;html=1;whiteSpace=wrap;connectable=0;strokeColor=inherit;overflow=hidden;fillColor=none;top=0;left=0;bottom=0;right=0;pointerEvents=1;" parent="QHB-Y2uV8XMT2nwZTS_r-1" vertex="1">
          <mxGeometry width="182" height="95" as="geometry">
            <mxRectangle width="182" height="95" as="alternateBounds" />
          </mxGeometry>
        </mxCell>
        <mxCell id="QHB-Y2uV8XMT2nwZTS_r-3" value="Employees" style="shape=partialRectangle;html=1;whiteSpace=wrap;connectable=0;strokeColor=inherit;overflow=hidden;fillColor=none;top=0;left=0;bottom=0;right=0;pointerEvents=1;" parent="QHB-Y2uV8XMT2nwZTS_r-1" vertex="1">
          <mxGeometry x="182" width="181" height="95" as="geometry">
            <mxRectangle width="181" height="95" as="alternateBounds" />
          </mxGeometry>
        </mxCell>
        <mxCell id="QHB-Y2uV8XMT2nwZTS_r-4" value="Working Days" style="shape=partialRectangle;html=1;whiteSpace=wrap;connectable=0;strokeColor=inherit;overflow=hidden;fillColor=none;top=0;left=0;bottom=0;right=0;pointerEvents=1;" parent="QHB-Y2uV8XMT2nwZTS_r-1" vertex="1">
          <mxGeometry x="363" width="182" height="95" as="geometry">
            <mxRectangle width="182" height="95" as="alternateBounds" />
          </mxGeometry>
        </mxCell>
        <mxCell id="QHB-Y2uV8XMT2nwZTS_r-5" value="Cooking Time in mins/day" style="shape=partialRectangle;html=1;whiteSpace=wrap;connectable=0;strokeColor=inherit;overflow=hidden;fillColor=none;top=0;left=0;bottom=0;right=0;pointerEvents=1;" parent="QHB-Y2uV8XMT2nwZTS_r-1" vertex="1">
          <mxGeometry x="545" width="180" height="95" as="geometry">
            <mxRectangle width="180" height="95" as="alternateBounds" />
          </mxGeometry>
        </mxCell>
        <mxCell id="QHB-Y2uV8XMT2nwZTS_r-6" value="CO2 emission/person in kg" style="shape=partialRectangle;html=1;whiteSpace=wrap;connectable=0;strokeColor=inherit;overflow=hidden;fillColor=none;top=0;left=0;bottom=0;right=0;pointerEvents=1;" parent="QHB-Y2uV8XMT2nwZTS_r-1" vertex="1">
          <mxGeometry x="725" width="182" height="95" as="geometry">
            <mxRectangle width="182" height="95" as="alternateBounds" />
          </mxGeometry>
        </mxCell>
        <mxCell id="QHB-Y2uV8XMT2nwZTS_r-7" value="Total Co2 emission in kg-min" style="shape=partialRectangle;html=1;whiteSpace=wrap;connectable=0;strokeColor=inherit;overflow=hidden;fillColor=none;top=0;left=0;bottom=0;right=0;pointerEvents=1;" parent="QHB-Y2uV8XMT2nwZTS_r-1" vertex="1">
          <mxGeometry x="907" width="181" height="95" as="geometry">
            <mxRectangle width="181" height="95" as="alternateBounds" />
          </mxGeometry>
        </mxCell>
        <mxCell id="QHB-Y2uV8XMT2nwZTS_r-8" value="CO2 reduction in %" style="shape=partialRectangle;html=1;whiteSpace=wrap;connectable=0;strokeColor=inherit;overflow=hidden;fillColor=none;top=0;left=0;bottom=0;right=0;pointerEvents=1;" parent="QHB-Y2uV8XMT2nwZTS_r-1" vertex="1">
          <mxGeometry x="1088" width="182" height="95" as="geometry">
            <mxRectangle width="182" height="95" as="alternateBounds" />
          </mxGeometry>
        </mxCell>
        <mxCell id="QHB-Y2uV8XMT2nwZTS_r-9" value="" style="shape=tableRow;horizontal=0;startSize=0;swimlaneHead=0;swimlaneBody=0;strokeColor=inherit;top=0;left=0;bottom=0;right=0;collapsible=0;dropTarget=0;fillColor=none;points=[[0,0.5],[1,0.5]];portConstraint=eastwest;" parent="QHB-Y2uV8XMT2nwZTS_r-0" vertex="1">
          <mxGeometry y="95" width="1270" height="95" as="geometry" />
        </mxCell>
        <mxCell id="QHB-Y2uV8XMT2nwZTS_r-10" value="Individual Cooking" style="shape=partialRectangle;html=1;whiteSpace=wrap;connectable=0;strokeColor=inherit;overflow=hidden;fillColor=none;top=0;left=0;bottom=0;right=0;pointerEvents=1;" parent="QHB-Y2uV8XMT2nwZTS_r-9" vertex="1">
          <mxGeometry width="182" height="95" as="geometry">
            <mxRectangle width="182" height="95" as="alternateBounds" />
          </mxGeometry>
        </mxCell>
        <mxCell id="QHB-Y2uV8XMT2nwZTS_r-11" value="11" style="shape=partialRectangle;html=1;whiteSpace=wrap;connectable=0;strokeColor=inherit;overflow=hidden;fillColor=none;top=0;left=0;bottom=0;right=0;pointerEvents=1;" parent="QHB-Y2uV8XMT2nwZTS_r-9" vertex="1">
          <mxGeometry x="182" width="181" height="95" as="geometry">
            <mxRectangle width="181" height="95" as="alternateBounds" />
          </mxGeometry>
        </mxCell>
        <mxCell id="QHB-Y2uV8XMT2nwZTS_r-12" value="20" style="shape=partialRectangle;html=1;whiteSpace=wrap;connectable=0;strokeColor=inherit;overflow=hidden;fillColor=none;top=0;left=0;bottom=0;right=0;pointerEvents=1;" parent="QHB-Y2uV8XMT2nwZTS_r-9" vertex="1">
          <mxGeometry x="363" width="182" height="95" as="geometry">
            <mxRectangle width="182" height="95" as="alternateBounds" />
          </mxGeometry>
        </mxCell>
        <mxCell id="QHB-Y2uV8XMT2nwZTS_r-13" value="165" style="shape=partialRectangle;html=1;whiteSpace=wrap;connectable=0;strokeColor=inherit;overflow=hidden;fillColor=none;top=0;left=0;bottom=0;right=0;pointerEvents=1;" parent="QHB-Y2uV8XMT2nwZTS_r-9" vertex="1">
          <mxGeometry x="545" width="180" height="95" as="geometry">
            <mxRectangle width="180" height="95" as="alternateBounds" />
          </mxGeometry>
        </mxCell>
        <mxCell id="QHB-Y2uV8XMT2nwZTS_r-14" value="0.03" style="shape=partialRectangle;html=1;whiteSpace=wrap;connectable=0;strokeColor=inherit;overflow=hidden;fillColor=none;top=0;left=0;bottom=0;right=0;pointerEvents=1;" parent="QHB-Y2uV8XMT2nwZTS_r-9" vertex="1">
          <mxGeometry x="725" width="182" height="95" as="geometry">
            <mxRectangle width="182" height="95" as="alternateBounds" />
          </mxGeometry>
        </mxCell>
        <mxCell id="QHB-Y2uV8XMT2nwZTS_r-15" value="1089" style="shape=partialRectangle;html=1;whiteSpace=wrap;connectable=0;strokeColor=inherit;overflow=hidden;fillColor=none;top=0;left=0;bottom=0;right=0;pointerEvents=1;" parent="QHB-Y2uV8XMT2nwZTS_r-9" vertex="1">
          <mxGeometry x="907" width="181" height="95" as="geometry">
            <mxRectangle width="181" height="95" as="alternateBounds" />
          </mxGeometry>
        </mxCell>
        <mxCell id="QHB-Y2uV8XMT2nwZTS_r-16" value="45.45" style="shape=partialRectangle;html=1;whiteSpace=wrap;connectable=0;strokeColor=inherit;overflow=hidden;fillColor=none;top=0;left=0;bottom=0;right=0;pointerEvents=1;" parent="QHB-Y2uV8XMT2nwZTS_r-9" vertex="1">
          <mxGeometry x="1088" width="182" height="95" as="geometry">
            <mxRectangle width="182" height="95" as="alternateBounds" />
          </mxGeometry>
        </mxCell>
        <mxCell id="QHB-Y2uV8XMT2nwZTS_r-17" value="" style="shape=tableRow;horizontal=0;startSize=0;swimlaneHead=0;swimlaneBody=0;strokeColor=inherit;top=0;left=0;bottom=0;right=0;collapsible=0;dropTarget=0;fillColor=none;points=[[0,0.5],[1,0.5]];portConstraint=eastwest;" parent="QHB-Y2uV8XMT2nwZTS_r-0" vertex="1">
          <mxGeometry y="190" width="1270" height="94" as="geometry" />
        </mxCell>
        <mxCell id="QHB-Y2uV8XMT2nwZTS_r-18" value="Mass Cooking" style="shape=partialRectangle;html=1;whiteSpace=wrap;connectable=0;strokeColor=inherit;overflow=hidden;fillColor=none;top=0;left=0;bottom=0;right=0;pointerEvents=1;" parent="QHB-Y2uV8XMT2nwZTS_r-17" vertex="1">
          <mxGeometry width="182" height="94" as="geometry">
            <mxRectangle width="182" height="94" as="alternateBounds" />
          </mxGeometry>
        </mxCell>
        <mxCell id="QHB-Y2uV8XMT2nwZTS_r-19" value="11" style="shape=partialRectangle;html=1;whiteSpace=wrap;connectable=0;strokeColor=inherit;overflow=hidden;fillColor=none;top=0;left=0;bottom=0;right=0;pointerEvents=1;" parent="QHB-Y2uV8XMT2nwZTS_r-17" vertex="1">
          <mxGeometry x="182" width="181" height="94" as="geometry">
            <mxRectangle width="181" height="94" as="alternateBounds" />
          </mxGeometry>
        </mxCell>
        <mxCell id="QHB-Y2uV8XMT2nwZTS_r-20" value="20" style="shape=partialRectangle;html=1;whiteSpace=wrap;connectable=0;strokeColor=inherit;overflow=hidden;fillColor=none;top=0;left=0;bottom=0;right=0;pointerEvents=1;" parent="QHB-Y2uV8XMT2nwZTS_r-17" vertex="1">
          <mxGeometry x="363" width="182" height="94" as="geometry">
            <mxRectangle width="182" height="94" as="alternateBounds" />
          </mxGeometry>
        </mxCell>
        <mxCell id="QHB-Y2uV8XMT2nwZTS_r-21" value="90" style="shape=partialRectangle;html=1;whiteSpace=wrap;connectable=0;strokeColor=inherit;overflow=hidden;fillColor=none;top=0;left=0;bottom=0;right=0;pointerEvents=1;" parent="QHB-Y2uV8XMT2nwZTS_r-17" vertex="1">
          <mxGeometry x="545" width="180" height="94" as="geometry">
            <mxRectangle width="180" height="94" as="alternateBounds" />
          </mxGeometry>
        </mxCell>
        <mxCell id="QHB-Y2uV8XMT2nwZTS_r-22" value="0.03" style="shape=partialRectangle;html=1;whiteSpace=wrap;connectable=0;strokeColor=inherit;overflow=hidden;fillColor=none;top=0;left=0;bottom=0;right=0;pointerEvents=1;" parent="QHB-Y2uV8XMT2nwZTS_r-17" vertex="1">
          <mxGeometry x="725" width="182" height="94" as="geometry">
            <mxRectangle width="182" height="94" as="alternateBounds" />
          </mxGeometry>
        </mxCell>
        <mxCell id="QHB-Y2uV8XMT2nwZTS_r-23" value="594" style="shape=partialRectangle;html=1;whiteSpace=wrap;connectable=0;strokeColor=inherit;overflow=hidden;fillColor=none;top=0;left=0;bottom=0;right=0;pointerEvents=1;" parent="QHB-Y2uV8XMT2nwZTS_r-17" vertex="1">
          <mxGeometry x="907" width="181" height="94" as="geometry">
            <mxRectangle width="181" height="94" as="alternateBounds" />
          </mxGeometry>
        </mxCell>
        <mxCell id="QHB-Y2uV8XMT2nwZTS_r-24" value="" style="shape=partialRectangle;html=1;whiteSpace=wrap;connectable=0;strokeColor=inherit;overflow=hidden;fillColor=none;top=0;left=0;bottom=0;right=0;pointerEvents=1;" parent="QHB-Y2uV8XMT2nwZTS_r-17" vertex="1">
          <mxGeometry x="1088" width="182" height="94" as="geometry">
            <mxRectangle width="182" height="94" as="alternateBounds" />
          </mxGeometry>
        </mxCell>
        <mxCell id="QHB-Y2uV8XMT2nwZTS_r-25" value="" style="shape=tableRow;horizontal=0;startSize=0;swimlaneHead=0;swimlaneBody=0;strokeColor=inherit;top=0;left=0;bottom=0;right=0;collapsible=0;dropTarget=0;fillColor=none;points=[[0,0.5],[1,0.5]];portConstraint=eastwest;" parent="QHB-Y2uV8XMT2nwZTS_r-0" vertex="1">
          <mxGeometry y="284" width="1270" height="95" as="geometry" />
        </mxCell>
        <mxCell id="QHB-Y2uV8XMT2nwZTS_r-26" value="Individual Bike" style="shape=partialRectangle;html=1;whiteSpace=wrap;connectable=0;strokeColor=inherit;overflow=hidden;fillColor=none;top=0;left=0;bottom=0;right=0;pointerEvents=1;" parent="QHB-Y2uV8XMT2nwZTS_r-25" vertex="1">
          <mxGeometry width="182" height="95" as="geometry">
            <mxRectangle width="182" height="95" as="alternateBounds" />
          </mxGeometry>
        </mxCell>
        <mxCell id="QHB-Y2uV8XMT2nwZTS_r-27" value="7" style="shape=partialRectangle;html=1;whiteSpace=wrap;connectable=0;strokeColor=inherit;overflow=hidden;fillColor=none;top=0;left=0;bottom=0;right=0;pointerEvents=1;" parent="QHB-Y2uV8XMT2nwZTS_r-25" vertex="1">
          <mxGeometry x="182" width="181" height="95" as="geometry">
            <mxRectangle width="181" height="95" as="alternateBounds" />
          </mxGeometry>
        </mxCell>
        <mxCell id="QHB-Y2uV8XMT2nwZTS_r-28" value="20" style="shape=partialRectangle;html=1;whiteSpace=wrap;connectable=0;strokeColor=inherit;overflow=hidden;fillColor=none;top=0;left=0;bottom=0;right=0;pointerEvents=1;" parent="QHB-Y2uV8XMT2nwZTS_r-25" vertex="1">
          <mxGeometry x="363" width="182" height="95" as="geometry">
            <mxRectangle width="182" height="95" as="alternateBounds" />
          </mxGeometry>
        </mxCell>
        <mxCell id="QHB-Y2uV8XMT2nwZTS_r-29" value="30" style="shape=partialRectangle;html=1;whiteSpace=wrap;connectable=0;strokeColor=inherit;overflow=hidden;fillColor=none;top=0;left=0;bottom=0;right=0;pointerEvents=1;" parent="QHB-Y2uV8XMT2nwZTS_r-25" vertex="1">
          <mxGeometry x="545" width="180" height="95" as="geometry">
            <mxRectangle width="180" height="95" as="alternateBounds" />
          </mxGeometry>
        </mxCell>
        <mxCell id="QHB-Y2uV8XMT2nwZTS_r-30" value="1.73" style="shape=partialRectangle;html=1;whiteSpace=wrap;connectable=0;strokeColor=inherit;overflow=hidden;fillColor=none;top=0;left=0;bottom=0;right=0;pointerEvents=1;" parent="QHB-Y2uV8XMT2nwZTS_r-25" vertex="1">
          <mxGeometry x="725" width="182" height="95" as="geometry">
            <mxRectangle width="182" height="95" as="alternateBounds" />
          </mxGeometry>
        </mxCell>
        <mxCell id="QHB-Y2uV8XMT2nwZTS_r-31" value="241.6" style="shape=partialRectangle;html=1;whiteSpace=wrap;connectable=0;strokeColor=inherit;overflow=hidden;fillColor=none;top=0;left=0;bottom=0;right=0;pointerEvents=1;" parent="QHB-Y2uV8XMT2nwZTS_r-25" vertex="1">
          <mxGeometry x="907" width="181" height="95" as="geometry">
            <mxRectangle width="181" height="95" as="alternateBounds" />
          </mxGeometry>
        </mxCell>
        <mxCell id="QHB-Y2uV8XMT2nwZTS_r-32" value="88.45" style="shape=partialRectangle;html=1;whiteSpace=wrap;connectable=0;strokeColor=inherit;overflow=hidden;fillColor=none;top=0;left=0;bottom=0;right=0;pointerEvents=1;" parent="QHB-Y2uV8XMT2nwZTS_r-25" vertex="1">
          <mxGeometry x="1088" width="182" height="95" as="geometry">
            <mxRectangle width="182" height="95" as="alternateBounds" />
          </mxGeometry>
        </mxCell>
        <mxCell id="QHB-Y2uV8XMT2nwZTS_r-33" value="" style="shape=tableRow;horizontal=0;startSize=0;swimlaneHead=0;swimlaneBody=0;strokeColor=inherit;top=0;left=0;bottom=0;right=0;collapsible=0;dropTarget=0;fillColor=none;points=[[0,0.5],[1,0.5]];portConstraint=eastwest;" parent="QHB-Y2uV8XMT2nwZTS_r-0" vertex="1">
          <mxGeometry y="379" width="1270" height="95" as="geometry" />
        </mxCell>
        <mxCell id="QHB-Y2uV8XMT2nwZTS_r-34" value="Public Transport&amp;nbsp;" style="shape=partialRectangle;html=1;whiteSpace=wrap;connectable=0;strokeColor=inherit;overflow=hidden;fillColor=none;top=0;left=0;bottom=0;right=0;pointerEvents=1;" parent="QHB-Y2uV8XMT2nwZTS_r-33" vertex="1">
          <mxGeometry width="182" height="95" as="geometry">
            <mxRectangle width="182" height="95" as="alternateBounds" />
          </mxGeometry>
        </mxCell>
        <mxCell id="QHB-Y2uV8XMT2nwZTS_r-35" value="7" style="shape=partialRectangle;html=1;whiteSpace=wrap;connectable=0;strokeColor=inherit;overflow=hidden;fillColor=none;top=0;left=0;bottom=0;right=0;pointerEvents=1;" parent="QHB-Y2uV8XMT2nwZTS_r-33" vertex="1">
          <mxGeometry x="182" width="181" height="95" as="geometry">
            <mxRectangle width="181" height="95" as="alternateBounds" />
          </mxGeometry>
        </mxCell>
        <mxCell id="QHB-Y2uV8XMT2nwZTS_r-36" value="20" style="shape=partialRectangle;html=1;whiteSpace=wrap;connectable=0;strokeColor=inherit;overflow=hidden;fillColor=none;top=0;left=0;bottom=0;right=0;pointerEvents=1;" parent="QHB-Y2uV8XMT2nwZTS_r-33" vertex="1">
          <mxGeometry x="363" width="182" height="95" as="geometry">
            <mxRectangle width="182" height="95" as="alternateBounds" />
          </mxGeometry>
        </mxCell>
        <mxCell id="QHB-Y2uV8XMT2nwZTS_r-37" value="30" style="shape=partialRectangle;html=1;whiteSpace=wrap;connectable=0;strokeColor=inherit;overflow=hidden;fillColor=none;top=0;left=0;bottom=0;right=0;pointerEvents=1;" parent="QHB-Y2uV8XMT2nwZTS_r-33" vertex="1">
          <mxGeometry x="545" width="180" height="95" as="geometry">
            <mxRectangle width="180" height="95" as="alternateBounds" />
          </mxGeometry>
        </mxCell>
        <mxCell id="QHB-Y2uV8XMT2nwZTS_r-38" value="0.19" style="shape=partialRectangle;html=1;whiteSpace=wrap;connectable=0;strokeColor=inherit;overflow=hidden;fillColor=none;top=0;left=0;bottom=0;right=0;pointerEvents=1;" parent="QHB-Y2uV8XMT2nwZTS_r-33" vertex="1">
          <mxGeometry x="725" width="182" height="95" as="geometry">
            <mxRectangle width="182" height="95" as="alternateBounds" />
          </mxGeometry>
        </mxCell>
        <mxCell id="QHB-Y2uV8XMT2nwZTS_r-39" value="27.8" style="shape=partialRectangle;html=1;whiteSpace=wrap;connectable=0;strokeColor=inherit;overflow=hidden;fillColor=none;top=0;left=0;bottom=0;right=0;pointerEvents=1;" parent="QHB-Y2uV8XMT2nwZTS_r-33" vertex="1">
          <mxGeometry x="907" width="181" height="95" as="geometry">
            <mxRectangle width="181" height="95" as="alternateBounds" />
          </mxGeometry>
        </mxCell>
        <mxCell id="QHB-Y2uV8XMT2nwZTS_r-40" value="" style="shape=partialRectangle;html=1;whiteSpace=wrap;connectable=0;strokeColor=inherit;overflow=hidden;fillColor=none;top=0;left=0;bottom=0;right=0;pointerEvents=1;" parent="QHB-Y2uV8XMT2nwZTS_r-33" vertex="1">
          <mxGeometry x="1088" width="182" height="95" as="geometry">
            <mxRectangle width="182" height="95" as="alternateBounds" />
          </mxGeometry>
        </mxCell>
        <mxCell id="QHB-Y2uV8XMT2nwZTS_r-41" value="" style="shape=tableRow;horizontal=0;startSize=0;swimlaneHead=0;swimlaneBody=0;strokeColor=inherit;top=0;left=0;bottom=0;right=0;collapsible=0;dropTarget=0;fillColor=none;points=[[0,0.5],[1,0.5]];portConstraint=eastwest;" parent="QHB-Y2uV8XMT2nwZTS_r-0" vertex="1">
          <mxGeometry y="474" width="1270" height="96" as="geometry" />
        </mxCell>
        <mxCell id="QHB-Y2uV8XMT2nwZTS_r-42" value="" style="shape=partialRectangle;html=1;whiteSpace=wrap;connectable=0;strokeColor=inherit;overflow=hidden;fillColor=none;top=0;left=0;bottom=0;right=0;pointerEvents=1;" parent="QHB-Y2uV8XMT2nwZTS_r-41" vertex="1">
          <mxGeometry width="182" height="96" as="geometry">
            <mxRectangle width="182" height="96" as="alternateBounds" />
          </mxGeometry>
        </mxCell>
        <mxCell id="QHB-Y2uV8XMT2nwZTS_r-43" value="" style="shape=partialRectangle;html=1;whiteSpace=wrap;connectable=0;strokeColor=inherit;overflow=hidden;fillColor=none;top=0;left=0;bottom=0;right=0;pointerEvents=1;" parent="QHB-Y2uV8XMT2nwZTS_r-41" vertex="1">
          <mxGeometry x="182" width="181" height="96" as="geometry">
            <mxRectangle width="181" height="96" as="alternateBounds" />
          </mxGeometry>
        </mxCell>
        <mxCell id="QHB-Y2uV8XMT2nwZTS_r-44" value="" style="shape=partialRectangle;html=1;whiteSpace=wrap;connectable=0;strokeColor=inherit;overflow=hidden;fillColor=none;top=0;left=0;bottom=0;right=0;pointerEvents=1;" parent="QHB-Y2uV8XMT2nwZTS_r-41" vertex="1">
          <mxGeometry x="363" width="182" height="96" as="geometry">
            <mxRectangle width="182" height="96" as="alternateBounds" />
          </mxGeometry>
        </mxCell>
        <mxCell id="QHB-Y2uV8XMT2nwZTS_r-45" value="" style="shape=partialRectangle;html=1;whiteSpace=wrap;connectable=0;strokeColor=inherit;overflow=hidden;fillColor=none;top=0;left=0;bottom=0;right=0;pointerEvents=1;" parent="QHB-Y2uV8XMT2nwZTS_r-41" vertex="1">
          <mxGeometry x="545" width="180" height="96" as="geometry">
            <mxRectangle width="180" height="96" as="alternateBounds" />
          </mxGeometry>
        </mxCell>
        <mxCell id="QHB-Y2uV8XMT2nwZTS_r-46" value="" style="shape=partialRectangle;html=1;whiteSpace=wrap;connectable=0;strokeColor=inherit;overflow=hidden;fillColor=none;top=0;left=0;bottom=0;right=0;pointerEvents=1;" parent="QHB-Y2uV8XMT2nwZTS_r-41" vertex="1">
          <mxGeometry x="725" width="182" height="96" as="geometry">
            <mxRectangle width="182" height="96" as="alternateBounds" />
          </mxGeometry>
        </mxCell>
        <mxCell id="QHB-Y2uV8XMT2nwZTS_r-47" value="" style="shape=partialRectangle;html=1;whiteSpace=wrap;connectable=0;strokeColor=inherit;overflow=hidden;fillColor=none;top=0;left=0;bottom=0;right=0;pointerEvents=1;" parent="QHB-Y2uV8XMT2nwZTS_r-41" vertex="1">
          <mxGeometry x="907" width="181" height="96" as="geometry">
            <mxRectangle width="181" height="96" as="alternateBounds" />
          </mxGeometry>
        </mxCell>
        <mxCell id="QHB-Y2uV8XMT2nwZTS_r-48" value="" style="shape=partialRectangle;html=1;whiteSpace=wrap;connectable=0;strokeColor=inherit;overflow=hidden;fillColor=none;top=0;left=0;bottom=0;right=0;pointerEvents=1;" parent="QHB-Y2uV8XMT2nwZTS_r-41" vertex="1">
          <mxGeometry x="1088" width="182" height="96" as="geometry">
            <mxRectangle width="182" height="96" as="alternateBounds" />
          </mxGeometry>
        </mxCell>
        <mxCell id="QHB-Y2uV8XMT2nwZTS_r-49" value="" style="shape=tableRow;horizontal=0;startSize=0;swimlaneHead=0;swimlaneBody=0;strokeColor=inherit;top=0;left=0;bottom=0;right=0;collapsible=0;dropTarget=0;fillColor=none;points=[[0,0.5],[1,0.5]];portConstraint=eastwest;" parent="QHB-Y2uV8XMT2nwZTS_r-0" vertex="1">
          <mxGeometry y="570" width="1270" height="109" as="geometry" />
        </mxCell>
        <mxCell id="QHB-Y2uV8XMT2nwZTS_r-50" value="" style="shape=partialRectangle;html=1;whiteSpace=wrap;connectable=0;strokeColor=inherit;overflow=hidden;fillColor=none;top=0;left=0;bottom=0;right=0;pointerEvents=1;" parent="QHB-Y2uV8XMT2nwZTS_r-49" vertex="1">
          <mxGeometry width="182" height="109" as="geometry">
            <mxRectangle width="182" height="109" as="alternateBounds" />
          </mxGeometry>
        </mxCell>
        <mxCell id="QHB-Y2uV8XMT2nwZTS_r-51" value="" style="shape=partialRectangle;html=1;whiteSpace=wrap;connectable=0;strokeColor=inherit;overflow=hidden;fillColor=none;top=0;left=0;bottom=0;right=0;pointerEvents=1;" parent="QHB-Y2uV8XMT2nwZTS_r-49" vertex="1">
          <mxGeometry x="182" width="181" height="109" as="geometry">
            <mxRectangle width="181" height="109" as="alternateBounds" />
          </mxGeometry>
        </mxCell>
        <mxCell id="QHB-Y2uV8XMT2nwZTS_r-52" value="" style="shape=partialRectangle;html=1;whiteSpace=wrap;connectable=0;strokeColor=inherit;overflow=hidden;fillColor=none;top=0;left=0;bottom=0;right=0;pointerEvents=1;" parent="QHB-Y2uV8XMT2nwZTS_r-49" vertex="1">
          <mxGeometry x="363" width="182" height="109" as="geometry">
            <mxRectangle width="182" height="109" as="alternateBounds" />
          </mxGeometry>
        </mxCell>
        <mxCell id="QHB-Y2uV8XMT2nwZTS_r-53" value="" style="shape=partialRectangle;html=1;whiteSpace=wrap;connectable=0;strokeColor=inherit;overflow=hidden;fillColor=none;top=0;left=0;bottom=0;right=0;pointerEvents=1;" parent="QHB-Y2uV8XMT2nwZTS_r-49" vertex="1">
          <mxGeometry x="545" width="180" height="109" as="geometry">
            <mxRectangle width="180" height="109" as="alternateBounds" />
          </mxGeometry>
        </mxCell>
        <mxCell id="QHB-Y2uV8XMT2nwZTS_r-54" value="" style="shape=partialRectangle;html=1;whiteSpace=wrap;connectable=0;strokeColor=inherit;overflow=hidden;fillColor=none;top=0;left=0;bottom=0;right=0;pointerEvents=1;" parent="QHB-Y2uV8XMT2nwZTS_r-49" vertex="1">
          <mxGeometry x="725" width="182" height="109" as="geometry">
            <mxRectangle width="182" height="109" as="alternateBounds" />
          </mxGeometry>
        </mxCell>
        <mxCell id="QHB-Y2uV8XMT2nwZTS_r-55" value="" style="shape=partialRectangle;html=1;whiteSpace=wrap;connectable=0;strokeColor=inherit;overflow=hidden;fillColor=none;top=0;left=0;bottom=0;right=0;pointerEvents=1;" parent="QHB-Y2uV8XMT2nwZTS_r-49" vertex="1">
          <mxGeometry x="907" width="181" height="109" as="geometry">
            <mxRectangle width="181" height="109" as="alternateBounds" />
          </mxGeometry>
        </mxCell>
        <mxCell id="QHB-Y2uV8XMT2nwZTS_r-56" value="" style="shape=partialRectangle;html=1;whiteSpace=wrap;connectable=0;strokeColor=inherit;overflow=hidden;fillColor=none;top=0;left=0;bottom=0;right=0;pointerEvents=1;" parent="QHB-Y2uV8XMT2nwZTS_r-49" vertex="1">
          <mxGeometry x="1088" width="182" height="109" as="geometry">
            <mxRectangle width="182" height="109" as="alternateBounds" />
          </mxGeometry>
        </mxCell>
      </root>
    </mxGraphModel>
  </diagram>
</mxfile>
